<?xml version="1.0" encoding="UTF-8"?>
<svg id="Layer_1" xmlns="http://www.w3.org/2000/svg" xmlns:xlink="http://www.w3.org/1999/xlink" version="1.1" viewBox="0 0 1080 1080">
  <!-- Generator: Adobe Illustrator 30.8.1, SVG Export Plug-In . SVG Version: 2.1.4 Build 1)  -->
  <defs>
    <style>
      .st0 {
        fill: url(#linear-gradient2);
      }

      .st1 {
        fill: url(#linear-gradient1);
      }

      .st2 {
        fill: url(#linear-gradient9);
      }

      .st3 {
        fill: url(#linear-gradient3);
      }

      .st4 {
        fill: url(#linear-gradient6);
      }

      .st5 {
        fill: url(#linear-gradient8);
      }

      .st6 {
        fill: url(#linear-gradient7);
      }

      .st7 {
        fill: url(#linear-gradient5);
      }

      .st8 {
        fill: url(#linear-gradient4);
      }

      .st9 {
        fill: url(#linear-gradient18);
      }

      .st10 {
        fill: url(#linear-gradient13);
      }

      .st11 {
        fill: url(#linear-gradient12);
      }

      .st12 {
        fill: url(#linear-gradient15);
      }

      .st13 {
        fill: url(#linear-gradient16);
      }

      .st14 {
        fill: url(#linear-gradient11);
      }

      .st15 {
        fill: url(#linear-gradient10);
      }

      .st16 {
        fill: url(#linear-gradient17);
      }

      .st17 {
        fill: url(#linear-gradient14);
      }

      .st18 {
        fill: url(#linear-gradient19);
      }

      .st19 {
        fill: url(#linear-gradient22);
      }

      .st20 {
        fill: url(#linear-gradient21);
      }

      .st21 {
        fill: url(#linear-gradient20);
      }

      .st22 {
        fill: url(#linear-gradient);
      }
    </style>
    <linearGradient id="linear-gradient" x1="251.29" y1="22.56" x2="1884.49" y2="2392.76" gradientUnits="userSpaceOnUse">
      <stop offset="0" stop-color="#ae2914"/>
      <stop offset="1" stop-color="#4c0a02"/>
    </linearGradient>
    <linearGradient id="linear-gradient1" x1="414.75" y1="-90.07" x2="2047.94" y2="2280.13" xlink:href="#linear-gradient"/>
    <linearGradient id="linear-gradient2" x1="396.18" y1="-77.27" x2="2029.38" y2="2292.92" xlink:href="#linear-gradient"/>
    <linearGradient id="linear-gradient3" x1="320.14" y1="-24.88" x2="1953.34" y2="2345.32" xlink:href="#linear-gradient"/>
    <linearGradient id="linear-gradient4" x1="321.38" y1="-25.73" x2="1954.58" y2="2344.46" xlink:href="#linear-gradient"/>
    <linearGradient id="linear-gradient5" x1="223.95" y1="41.41" x2="1857.14" y2="2411.6" xlink:href="#linear-gradient"/>
    <linearGradient id="linear-gradient6" x1="296.08" y1="-8.3" x2="1929.28" y2="2361.9" xlink:href="#linear-gradient"/>
    <linearGradient id="linear-gradient7" x1="222.73" y1="42.25" x2="1855.93" y2="2412.44" xlink:href="#linear-gradient"/>
    <linearGradient id="linear-gradient8" x1="334.73" y1="-34.93" x2="1967.93" y2="2335.26" xlink:href="#linear-gradient"/>
    <linearGradient id="linear-gradient9" x1="-26.33" y1="213.86" x2="1606.87" y2="2584.05" xlink:href="#linear-gradient"/>
    <linearGradient id="linear-gradient10" x1="-83.46" y1="253.22" x2="1549.74" y2="2623.42" xlink:href="#linear-gradient"/>
    <linearGradient id="linear-gradient11" x1="230.77" y1="36.71" x2="1863.96" y2="2406.9" xlink:href="#linear-gradient"/>
    <linearGradient id="linear-gradient12" x1="-156.21" y1="303.35" x2="1476.99" y2="2673.55" xlink:href="#linear-gradient"/>
    <linearGradient id="linear-gradient13" x1="62.5" y1="152.65" x2="1695.7" y2="2522.85" xlink:href="#linear-gradient"/>
    <linearGradient id="linear-gradient14" x1="-36.47" y1="220.85" x2="1596.73" y2="2591.05" xlink:href="#linear-gradient"/>
    <linearGradient id="linear-gradient15" x1="159.12" y1="86.07" x2="1792.32" y2="2456.27" xlink:href="#linear-gradient"/>
    <linearGradient id="linear-gradient16" x1="220.29" y1="43.93" x2="1853.49" y2="2414.12" xlink:href="#linear-gradient"/>
    <linearGradient id="linear-gradient17" x1="222.56" y1="42.36" x2="1855.76" y2="2412.56" xlink:href="#linear-gradient"/>
    <linearGradient id="linear-gradient18" x1="310.85" y1="-18.47" x2="1944.04" y2="2351.73" xlink:href="#linear-gradient"/>
    <linearGradient id="linear-gradient19" x1="351" y1="-46.14" x2="1984.2" y2="2324.05" xlink:href="#linear-gradient"/>
    <linearGradient id="linear-gradient20" x1="333.24" y1="-33.9" x2="1966.44" y2="2336.29" xlink:href="#linear-gradient"/>
    <linearGradient id="linear-gradient21" x1="394.36" y1="-76.02" x2="2027.56" y2="2294.18" xlink:href="#linear-gradient"/>
    <linearGradient id="linear-gradient22" x1="273.11" y1="7.53" x2="1906.3" y2="2377.73" xlink:href="#linear-gradient"/>
  </defs>
  <path class="st22" d="M733.97,379.72h-24.68c-4.8,0-8.69,3.89-8.69,8.69,0,86.82-72.1,157.44-160.72,157.44s-160.73-70.63-160.73-157.44c0-4.8-3.89-8.69-8.69-8.69h-24.68c-4.8,0-8.69,3.89-8.69,8.69,0,103.02,79.79,188.06,181.76,198.44v54.08h-11.54c-23.24,0-42.07,18.84-42.07,42.07h149.29c0-23.24-18.84-42.07-42.07-42.07h-11.54v-54.08c101.97-10.39,181.76-95.42,181.76-198.44,0-4.8-3.89-8.69-8.69-8.69Z"/>
  <path class="st1" d="M591.36,77.66c-.13-.06-.26-.11-.39-.17-6.57-2.88-15.86,2.15-17.56,9.59-8.65,45.64-10,89.32-7.35,135.54.93,12.54,13.95,22.7,27.72,22.7,10.25,0,17.87-7.57,16.93-16.91-1.48-38.01-.91-75.46,1.97-113.38,1.56-16.3-6.93-31-21.32-37.36Z"/>
  <path class="st0" d="M663.86,453.74c9.76-18.07,15.33-42.73,14.74-63.05,0-64.5,0-129,0-193.51,0,0,.09-24.3-12.06-49.63-5.3-11.05-12.4-20.49-18.52-27.63-4.7-5.48-15.23-2.55-15.64,4.3-2.13,35.99,1.98,126.34,10.27,220.94,1.64,18.7,2.46,28.06,2.19,34.66-1.25,31.18.16,47.09-.72,68.18-.5,11.97,14.16,16.06,19.73,5.74Z"/>
  <path class="st3" d="M550.67,71.18c-3.97-3.64-9.63-3.78-10.83-3.79-7.17-.07-14.43,4.85-20.42,13-4.91,6.68-7.96,14.4-9.25,22.43-21.59,134.71,44.5,263.69,15.28,398.62-2.87,10.53,3.14,19.06,14.39,19.07,2.67,0,5.38-.08,8.04-.23,4.24-.24,8.56-.61,12.81-1.15,0,0,10.96-1.48,19.52-3.77,5.44-1.46,10.96-3.1,16.2-5.05.12-.04.17-.06.29-.11,16.33-6.05,27.82-20.09,29.37-35.65,1.05-10.53,6.85-23.6,2.85-90.68-1.28-21.38-1.36-15.97-2.03-29.43-2.32-46.47-7.23-58.23-9.92-79.12-1.35-10.52-12.08-19.05-23.85-19.05s-19.71,8.53-17.83,19.05c13.05,72.07,22.47,139.73,11.47,212.74-1.1,5.69-5.88,10.76-11.84,12.69-4.53,1.46-8.1-1.55-7.04-5.87,26.49-138.31-43.63-270.17-13.67-408.4,1.7-6.23.25-11.79-3.55-15.28Z"/>
  <path class="st8" d="M485.43,76.29c-3.6-1.14-7.83,1.25-11.6,3.38,0,0-7.68,4.33-12.49,10.93-6.8,9.33-7.07,92.14.22,209.16,1.29,10.7,3.56,29.73,14.13,32.81,11.4,3.32,27.76-13.27,28.88-20.16.59-3.65.39-7.84.39-7.84-.07-1.52-.24-2.66-.45-4.52-.64-5.44-1.27-9.39-1.38-10.09-9.99-61.4-11.69-97.43-11.69-97.43-2.2-46.68.34-66.52,2.07-94.96.62-10.19-2.55-19.53-8.08-21.28Z"/>
  <path class="st7" d="M493.42,344.5c-.13.05-.27.1-.4.14-14.74,5.33-24.09,18.99-23.49,34.72.64,36.57-1,72.55-4.73,108.97-1.49,8.92,5.67,16.6,15.91,17.15,13.74.74,27.34-8.31,29.01-20.3,5.38-44.23,6.61-86.24.67-130.53-1.26-7.23-10.24-12.56-16.97-10.15Z"/>
  <path class="st4" d="M423.67,128.05c-3.15.57-5.63,3.22-7.62,6.34-5.28,8.25-8.49,18.19-10.45,27.41-1.28,6.03-2.06,12.16-2.46,18.32-.41,6.38-.83,12.76-1.24,19.15-.44,6.76,4.69,12.5,11.17,12.5h0c12.62,0,22.77-10.85,22.48-24.04-.41-18.23-.46-34.01.03-47.01.33-8.82-6-13.75-11.91-12.67Z"/>
  <path class="st6" d="M401.09,391.34c3.17,26.81,8.36,44.2,22.77,66.29,5.81,8.91,23.56,5.12,24.05-5.44,1.19-25.68,4.63-55.01-6.67-162.69-1.5-14.25-2.24-21.38-2.45-25.83-.5-10.68-.99-20.93-1.42-30.73-.26-5.71-5.32-10.22-11.47-10.22h0c-13.7,0-24.81,10.32-24.81,23.05v145.57Z"/>
  <path class="st5" d="M751.85,350.4c.43-.18.86-.37,1.29-.56.56-.25,1.12-.52,1.67-.78.38-.18.76-.37,1.13-.55.58-.29,1.16-.59,1.73-.9.32-.17.63-.35.95-.52.61-.34,1.22-.69,1.82-1.04.22-.13.43-.26.64-.39,14.93-9.11,26.07-23.41,30.6-40.26.29-1.08.56-2.18.79-3.28.71-3.31,1.16-6.71,1.35-10.18.06-1.16.09-2.32.09-3.49h0c0-.85-.02-1.69-.06-2.53-1.1-28.69-20.83-52.78-47.95-61.62C752.65,100.59,649.55-.05,539.82,0c-109.59.05-212.6,100.53-205.89,224.27-27.17,8.8-46.95,32.92-48.05,61.65-.04.84-.06,1.68-.06,2.53h0c0,1.17.03,2.33.09,3.49.18,3.47.64,6.87,1.35,10.18.24,1.1.5,2.2.79,3.28,4.53,16.85,15.67,31.15,30.6,40.26.21.13.43.27.64.39.6.36,1.21.7,1.82,1.04.32.18.63.35.95.52.57.31,1.15.61,1.73.9.37.19.75.37,1.13.55.55.27,1.11.53,1.67.78.43.19.86.37,1.29.56.54.23,1.07.46,1.61.68.5.2,1.01.38,1.52.57.49.18.97.37,1.47.54.97.34,1.95.65,2.94.95.41.12.83.23,1.25.35.64.18,1.27.36,1.92.52.45.11.91.22,1.36.32.62.14,1.24.28,1.87.41.46.09.93.18,1.4.27.63.12,1.27.23,1.91.33.46.07.93.14,1.4.21.67.09,1.33.17,2.01.24.45.05.89.1,1.34.14.74.07,1.48.12,2.23.16.39.02.77.06,1.16.07,1.1.05,2.2.08,3.32.08.03,0,.07,0,.1,0,10.08,0,18.62-6.36,21.46-15.11.22-.67.4-1.36.55-2.06.15-.7.26-1.41.34-2.14.08-.72.12-1.46.12-2.2v-138.95c0-78.88,61.65-144.23,141.25-154.25,6.38-.8,12.88-1.24,19.48-1.31,6.59.07,13.09.51,19.48,1.31,79.6,10.02,141.25,75.38,141.25,154.25v138.95c0,.74.04,1.48.12,2.2.08.72.19,1.44.34,2.14.15.7.33,1.39.55,2.06,2.85,8.75,11.38,15.11,21.46,15.11.03,0,.07,0,.1,0,1.11,0,2.22-.03,3.32-.08.39-.02.77-.05,1.16-.07.75-.05,1.49-.09,2.23-.16.45-.04.89-.09,1.34-.14.67-.07,1.34-.15,2.01-.24.47-.06.93-.13,1.4-.21.64-.1,1.27-.21,1.91-.33.47-.09.94-.17,1.4-.27.63-.13,1.25-.27,1.87-.41.46-.11.91-.21,1.36-.32.64-.16,1.28-.34,1.92-.52.42-.12.83-.22,1.25-.35.99-.3,1.97-.61,2.94-.95.49-.17.98-.36,1.47-.54.51-.19,1.02-.37,1.52-.57.54-.22,1.08-.45,1.61-.68Z"/>
  <path class="st2" d="M175.53,861.56c12.8,0,29.05-3.46,46.69-10.72l13.14-37c5.53,30.78,12.8,47.38,33.2,57.06h.35c29.4,14.52,76.78,20.4,127.27,20.4,75.39,0,157.7-13.14,193.67-29.05h.35c17.98-7.95,33.2-16.25,45.65-24.21l12.8-33.2-3.11-2.77-22.13,7.61c-1.73.69-3.11,1.04-4.84,1.73-19.37,3.11-35.62,4.5-49.45,4.5-61.9,0-75.05-25.94-75.05-35.97,0-12.11,19.37-27.67,54.64-27.67,27.67,0,49.45,9.68,61.9,20.4l3.8-2.08c-3.8-17.64-15.22-62.6-59.14-62.6s-66.05,42.19-66.05,76.43c0,25.24,12.8,41.85,29.4,52.91-33.2,4.15-69.51,6.23-104.1,6.23-52.91,0-102.37-5.19-130.72-17.64h-.35c-18.67-8.3-25.94-13.14-30.09-47.03l-11.76-95.45h-5.19l-15.22,37.7-38.73,22.13c-35.62,19.37-50.84,47.03-50.84,72.97s14.18,45.3,43.92,45.3ZM226.02,753.66l8.3,53.26c0,1.04.35,1.73.35,2.42-17.98,5.88-36.31,7.95-50.15,7.95-24.9,0-38.04-10.03-45.3-23.52l86.8-40.12Z"/>
  <path class="st15" d="M186.6,649.22l22.48,22.83,24.9-24.9v-4.15l-24.9-24.9-22.48,22.83-22.82-22.83-24.9,25.25v3.46l24.9,25.25,22.82-22.83Z"/>
  <path class="st14" d="M711.24,769.38c2.77-10.03,4.15-20.06,4.15-30.43v-43.39l9.68-13.14-13.49-64.32h-5.19l-23.17,30.78,8.65,173.43h5.88l13.49-52.91Z"/>
  <path class="st11" d="M359.16,1022.59l-26.63,26.97v3.8l26.63,26.63,26.63-26.63c.35,0,.35-3.8,0-4.15l-26.63-26.63Z"/>
  <path class="st10" d="M673.19,1034.7l-22.82-22.83-24.9,25.25v3.46l24.9,25.25,22.82-22.83,22.48,22.83,24.9-24.9v-4.15l-24.9-24.9-22.48,22.83Z"/>
  <path class="st17" d="M705.01,836.19c-.69-.69-1.04-1.38-1.38-2.08h-5.19l-17.64,41.5c15.22,17.98,30.78,39.43,35.62,50.84-19.02,3.8-41.16,6.57-60.52,6.57,0,0,0,0-.01,0h0c-27.32,0-50.84-6.57-51.53-35.97l-.69-23.52h-6.22l-5.88,32.85c-.69,3.8-1.38,7.61-1.73,11.07-58.79,16.25-125.54,29.4-207.5,29.4-87.84,0-186.4-15.22-272.86-61.91l-2.77,4.5,49.11,62.94c61.56,27.32,130.38,40.46,211.3,40.46,88.19,0,163.58-15.56,207.84-34.24l14.18-33.89c-2.77,43.23,20.75,56.37,49.8,56.37,0,0,0,0,.01,0h0c24.9,0,48.76-6.22,68.13-16.25l12.11-33.2c4.5-12.45,6.57-24.9,5.88-37l6.92-16.6-26.97-41.85Z"/>
  <path class="st12" d="M776.95,1022.94c-2.08.69-4.15,1.73-5.53,3.46l-8.65,8.65,1.04,1.38,64.33-16.25c2.07-.69,4.15-2.08,5.53-3.8l9.34-10.72-1.38-1.73-64.67,19.02Z"/>
  <path class="st13" d="M870.32,842.07l-48.42-32.16q-.35-.35-.69-.69h-5.19l-12.11,43.92c41.85,23.52,69.17,55.68,74.01,74.01-23.52,4.15-60.52,6.22-77.12,6.22-40.81,0-39.43-13.14-42.88-30.09h-5.19c-1.04,13.14-2.08,30.09-2.08,38.39,0,26.97,11.41,39.77,40.12,39.77,19.71,0,52.22-6.22,75.74-15.56l10.03-22.48c15.22-33.55,7.95-62.25-12.45-89.92l6.22-11.41Z"/>
  <path class="st16" d="M786.5,877.12c9.31,0,18.71-1.4,31.43-3.85-8.31-5.89-17.25-11.61-26.79-16.96l7.52-27.3c-1.78.03-3.44.05-4.92.05-40.81,0-33.75-13.14-37.21-30.09h-5.19c-1.04,13.14-2.07,30.09-2.07,38.39,0,26.97,8.52,39.77,37.22,39.77Z"/>
  <path class="st9" d="M868.94,737.75l-48.42-32.16q-.35-.35-.69-.69h-5.19l-12.11,43.92c41.85,23.52,69.17,55.68,74.01,74.01-5.62.99-5.94,1.16-12.64,1.91l13.91,8.05c14.24-32.84,4.96-56.41-15.11-83.62l6.22-11.41Z"/>
  <path class="st18" d="M855.1,648.87c.35,0,.35-3.8,0-4.15l-26.63-26.63-26.63,26.98v3.8l26.63,26.63,26.63-26.63Z"/>
  <path class="st21" d="M970.87,829.99l-12.45,2.77.35-.35c-5.53,1.04-10.38,1.73-14.87,1.73-21.44,0-28.7-12.45-27.67-17.64,1.04-4.15,10.72-8.3,19.02-8.3,10.38,0,16.6,6.92,21.44,14.18l4.15-.69.35-1.38c6.57-16.6-1.73-33.89-17.64-33.89-14.87,0-25.25,14.52-30.09,25.59-6.57,15.22-4.15,27.67,6.57,35.97-2.08,1.73-3.81,3.81-6.23,5.88l-13.83,14.53,1.73,2.77,61.9-17.98,9.68-20.4-2.42-2.77Z"/>
  <path class="st20" d="M946.64,773.78c.13,0,.25.01.37.01v-78.58l12.11-14.53-14.18-62.59h-6.23l-24.55,31.82,3.42,138.32c7.61-8.24,17.37-14.45,29.07-14.45Z"/>
  <path class="st19" d="M923.5,1065.82h6.92l12.45-52.91c2.77-9.68,4.15-20.06,4.15-30.43v-111.33l-27.08,7.87,3.56,186.81Z"/>
</svg>