<svg xmlns="http://www.w3.org/2000/svg" xmlns:xlink="http://www.w3.org/1999/xlink" viewBox="0 0 1080 1080" xmlns:c2pa="http://c2pa.org/manifest"><metadata><c2pa:manifest>AAAWgmp1bWIAAAAeanVtZGMycGEAEQAQgAAAqgA4m3EDYzJwYQAAABZcanVtYgAAAEdqdW1kYzJtYQARABCAAACqADibcQN1cm46YzJwYTpkNzNlYjdiMy1kZjI4LTQwZDMtYTMzYi01ZThlNTEyMjlmM2IAAAADl2p1bWIAAAApanVtZGMyYXMAEQAQgAAAqgA4m3EDYzJwYS5hc3NlcnRpb25zAAAAALxqdW1iAAAARGp1bWRjYm9yABEAEIAAAKoAOJtxE2MycGEuaW5ncmVkaWVudC52MwAAAAAYYzJzaKa8FOxUmpE2IcVh1C7pwFoAAABwY2JvcqNpZGM6Zm9ybWF0bWltYWdlL3N2Zyt4bWxqaW5zdGFuY2VJRHgseG1wOmlpZDo2NDNmYmMxYi00MTAwLTQ2MmItYjQ1OS0yMTc1NDgwOGE4YjZscmVsYXRpb25zaGlwaHBhcmVudE9mAAAB4mp1bWIAAABBanVtZGNib3IAEQAQgAAAqgA4m3ETYzJwYS5hY3Rpb25zLnYyAAAAABhjMnNoT+BpdKlmRP/okBOBi2gc5gAAAZljYm9yomdhY3Rpb25zgqJmYWN0aW9ua2MycGEub3BlbmVkanBhcmFtZXRlcnOha2luZ3JlZGllbnRzgaJjdXJseC1zZWxmI2p1bWJmPWMycGEuYXNzZXJ0aW9ucy9jMnBhLmluZ3JlZGllbnQudjNkaGFzaFggntAJYcRmE7xIgi4WLjUcy7kkPrSyzfds3KL8p916GKGkZmFjdGlvbngdY29tLmFudGhyb3BpYy5jbGF1ZGUucHJvdmlkZWRqcGFyYW1ldGVyc6F4H2NvbS5hbnRocm9waWMub3JpZ2luLWNvbmZpZGVuY2VndW5rbm93bmtkZXNjcmlwdGlvbnhmQ2xhdWRlIHByb3ZpZGVkIHRoaXMgZmlsZSBhdCB0aGUgcmVxdWVzdCBvZiBhIHVzZXIgYW5kIG1heSBoYXZlIGNyZWF0ZWQgb3IgbW9kaWZpZWQgdGhlIGZpbGUgY29udGVudHMubXNvZnR3YXJlQWdlbnShZG5hbWVmQ2xhdWRlcmFsbEFjdGlvbnNJbmNsdWRlZPUAAADIanVtYgAAAEBqdW1kY2JvcgARABCAAACqADibcRNjMnBhLmhhc2guZGF0YQAAAAAYYzJzaLz0iQzKpi5u2fLrjfzsCNIAAACAY2JvcqVjYWxnZnNoYTI1NmNwYWRNAAAAAAAAAAAAAAAAAGRoYXNoWCBjz8zvHYsHtOBv4vZcPecXRVAwmJ+ad9YRkJmr1fjCZmRuYW1lbmp1bWJmIG1hbmlmZXN0amV4Y2x1c2lvbnOBomVzdGFydBiqZmxlbmd0aBkeBAAAAj5qdW1iAAAAJ2p1bWRjMmNsABEAEIAAAKoAOJtxA2MycGEuY2xhaW0udjIAAAACD2Nib3KlY2FsZ2ZzaGEyNTZpc2lnbmF0dXJleE1zZWxmI2p1bWJmPS9jMnBhL3VybjpjMnBhOmQ3M2ViN2IzLWRmMjgtNDBkMy1hMzNiLTVlOGU1MTIyOWYzYi9jMnBhLnNpZ25hdHVyZWppbnN0YW5jZUlEeCx4bXA6aWlkOmU5YmE4OGI0LTUxMzUtNDE5My04MjVmLTE1NjM4YTkxMjlmZXJjcmVhdGVkX2Fzc2VydGlvbnODomN1cmx4LXNlbGYjanVtYmY9YzJwYS5hc3NlcnRpb25zL2MycGEuaW5ncmVkaWVudC52M2RoYXNoWCCe0AlhxGYTvEiCLhYuNRzLuSQ+tLLN92zcovyn3XoYoaJjdXJseCpzZWxmI2p1bWJmPWMycGEuYXNzZXJ0aW9ucy9jMnBhLmFjdGlvbnMudjJkaGFzaFggGsIqKEkWrITY3jVkwzGsMjaqeNm0q2VFhek9Z3eUxD+iY3VybHgpc2VsZiNqdW1iZj1jMnBhLmFzc2VydGlvbnMvYzJwYS5oYXNoLmRhdGFkaGFzaFggqGIT4025OO5e4lhrMi7h4Lb5erpiQhNcPE3PwTOW1s90Y2xhaW1fZ2VuZXJhdG9yX2luZm+jZG5hbWVvQW50aHJvcGljIEZpbGVzZ3ZlcnNpb25lMS4wLjBrc3BlY1ZlcnNpb25lMi40LjAAABA4anVtYgAAAChqdW1kYzJjcwARABCAAACqADibcQNjMnBhLnNpZ25hdHVyZQAAABAIY2JvctKEWQISogEmGCFZAgowggIGMIIBjaADAgECAhRA5aAK7sI50L64g/oGQgU9Z1UTADAKBggqhkjOPQQDAzBJMRcwFQYDVQQKEw5BbnRocm9waWMsIFBCQzEuMCwGA1UEAxMlQW50aHJvcGljIENvbnRlbnQgQ3JlZGVudGlhbHMgUm9vdCBDQTAeFw0yNjA4MDcxODQzNTZaFw0yODA4MDYxOTQzNTZaMEQxFzAVBgNVBAoTDkFudGhyb3BpYywgUEJDMSkwJwYDVQQDEyBBbnRocm9waWMgQ2xhdWRlIENvbnRlbnQgU2lnbmluZzBZMBMGByqGSM49AgEGCCqGSM49AwEHA0IABJh6CmvLUBgFFNU0vUKlOVtE6djd17L5SuwX0LemFisBM3dkd/3cyjxFA3Qo5S46fX0/ihY0VZ7mfb9KF703t5OjWDBWMA4GA1UdDwEB/wQEAwIHgDAVBgNVHSUEDjAMBgorBgEEAYPoXgIBMAwGA1UdEwEB/wQCMAAwHwYDVR0jBBgwFoAUzlHiBIFOZFsj+OPEz5o+nMHXXMIwCgYIKoZIzj0EAwMDZwAwZAIwMXMdFJ4BetLLVY7ORuE9noqbbAZOZn/aArXyTwFAZfKrPzxF2vPoJNf1+UCdg1XGAjBwX1zd9WGqYkqmL5SFqw1QySjr1zJfpJM9+1rdDwSPLMOPOjKuiXjoU/pUUeG9RwmhY3BhZFkNngAAAAAAAAAAAAAAAAAAAAAAAAAAAAAAAAAAAAAAAAAAAAAAAAAAAAAAAAAAAAAAAAAAAAAAAAAAAAAAAAAAAAAAAAAAAAAAAAAAAAAAAAAAAAAAAAAAAAAAAAAAAAAAAAAAAAAAAAAAAAAAAAAAAAAAAAAAAAAAAAAAAAAAAAAAAAAAAAAAAAAAAAAAAAAAAAAAAAAAAAAAAAAAAAAAAAAAAAAAAAAAAAAAAAAAAAAAAAAAAAAAAAAAAAAAAAAAAAAAAAAAAAAAAAAAAAAAAAAAAAAAAAAAAAAAAAAAAAAAAAAAAAAAAAAAAAAAAAAAAAAAAAAAAAAAAAAAAAAAAAAAAAAAAAAAAAAAAAAAAAAAAAAAAAAAAAAAAAAAAAAAAAAAAAAAAAAAAAAAAAAAAAAAAAAAAAAAAAAAAAAAAAAAAAAAAAAAAAAAAAAAAAAAAAAAAAAAAAAAAAAAAAAAAAAAAAAAAAAAAAAAAAAAAAAAAAAAAAAAAAAAAAAAAAAAAAAAAAAAAAAAAAAAAAAAAAAAAAAAAAAAAAAAAAAAAAAAAAAAAAAAAAAAAAAAAAAAAAAAAAAAAAAAAAAAAAAAAAAAAAAAAAAAAAAAAAAAAAAAAAAAAAAAAAAAAAAAAAAAAAAAAAAAAAAAAAAAAAAAAAAAAAAAAAAAAAAAAAAAAAAAAAAAAAAAAAAAAAAAAAAAAAAAAAAAAAAAAAAAAAAAAAAAAAAAAAAAAAAAAAAAAAAAAAAAAAAAAAAAAAAAAAAAAAAAAAAAAAAAAAAAAAAAAAAAAAAAAAAAAAAAAAAAAAAAAAAAAAAAAAAAAAAAAAAAAAAAAAAAAAAAAAAAAAAAAAAAAAAAAAAAAAAAAAAAAAAAAAAAAAAAAAAAAAAAAAAAAAAAAAAAAAAAAAAAAAAAAAAAAAAAAAAAAAAAAAAAAAAAAAAAAAAAAAAAAAAAAAAAAAAAAAAAAAAAAAAAAAAAAAAAAAAAAAAAAAAAAAAAAAAAAAAAAAAAAAAAAAAAAAAAAAAAAAAAAAAAAAAAAAAAAAAAAAAAAAAAAAAAAAAAAAAAAAAAAAAAAAAAAAAAAAAAAAAAAAAAAAAAAAAAAAAAAAAAAAAAAAAAAAAAAAAAAAAAAAAAAAAAAAAAAAAAAAAAAAAAAAAAAAAAAAAAAAAAAAAAAAAAAAAAAAAAAAAAAAAAAAAAAAAAAAAAAAAAAAAAAAAAAAAAAAAAAAAAAAAAAAAAAAAAAAAAAAAAAAAAAAAAAAAAAAAAAAAAAAAAAAAAAAAAAAAAAAAAAAAAAAAAAAAAAAAAAAAAAAAAAAAAAAAAAAAAAAAAAAAAAAAAAAAAAAAAAAAAAAAAAAAAAAAAAAAAAAAAAAAAAAAAAAAAAAAAAAAAAAAAAAAAAAAAAAAAAAAAAAAAAAAAAAAAAAAAAAAAAAAAAAAAAAAAAAAAAAAAAAAAAAAAAAAAAAAAAAAAAAAAAAAAAAAAAAAAAAAAAAAAAAAAAAAAAAAAAAAAAAAAAAAAAAAAAAAAAAAAAAAAAAAAAAAAAAAAAAAAAAAAAAAAAAAAAAAAAAAAAAAAAAAAAAAAAAAAAAAAAAAAAAAAAAAAAAAAAAAAAAAAAAAAAAAAAAAAAAAAAAAAAAAAAAAAAAAAAAAAAAAAAAAAAAAAAAAAAAAAAAAAAAAAAAAAAAAAAAAAAAAAAAAAAAAAAAAAAAAAAAAAAAAAAAAAAAAAAAAAAAAAAAAAAAAAAAAAAAAAAAAAAAAAAAAAAAAAAAAAAAAAAAAAAAAAAAAAAAAAAAAAAAAAAAAAAAAAAAAAAAAAAAAAAAAAAAAAAAAAAAAAAAAAAAAAAAAAAAAAAAAAAAAAAAAAAAAAAAAAAAAAAAAAAAAAAAAAAAAAAAAAAAAAAAAAAAAAAAAAAAAAAAAAAAAAAAAAAAAAAAAAAAAAAAAAAAAAAAAAAAAAAAAAAAAAAAAAAAAAAAAAAAAAAAAAAAAAAAAAAAAAAAAAAAAAAAAAAAAAAAAAAAAAAAAAAAAAAAAAAAAAAAAAAAAAAAAAAAAAAAAAAAAAAAAAAAAAAAAAAAAAAAAAAAAAAAAAAAAAAAAAAAAAAAAAAAAAAAAAAAAAAAAAAAAAAAAAAAAAAAAAAAAAAAAAAAAAAAAAAAAAAAAAAAAAAAAAAAAAAAAAAAAAAAAAAAAAAAAAAAAAAAAAAAAAAAAAAAAAAAAAAAAAAAAAAAAAAAAAAAAAAAAAAAAAAAAAAAAAAAAAAAAAAAAAAAAAAAAAAAAAAAAAAAAAAAAAAAAAAAAAAAAAAAAAAAAAAAAAAAAAAAAAAAAAAAAAAAAAAAAAAAAAAAAAAAAAAAAAAAAAAAAAAAAAAAAAAAAAAAAAAAAAAAAAAAAAAAAAAAAAAAAAAAAAAAAAAAAAAAAAAAAAAAAAAAAAAAAAAAAAAAAAAAAAAAAAAAAAAAAAAAAAAAAAAAAAAAAAAAAAAAAAAAAAAAAAAAAAAAAAAAAAAAAAAAAAAAAAAAAAAAAAAAAAAAAAAAAAAAAAAAAAAAAAAAAAAAAAAAAAAAAAAAAAAAAAAAAAAAAAAAAAAAAAAAAAAAAAAAAAAAAAAAAAAAAAAAAAAAAAAAAAAAAAAAAAAAAAAAAAAAAAAAAAAAAAAAAAAAAAAAAAAAAAAAAAAAAAAAAAAAAAAAAAAAAAAAAAAAAAAAAAAAAAAAAAAAAAAAAAAAAAAAAAAAAAAAAAAAAAAAAAAAAAAAAAAAAAAAAAAAAAAAAAAAAAAAAAAAAAAAAAAAAAAAAAAAAAAAAAAAAAAAAAAAAAAAAAAAAAAAAAAAAAAAAAAAAAAAAAAAAAAAAAAAAAAAAAAAAAAAAAAAAAAAAAAAAAAAAAAAAAAAAAAAAAAAAAAAAAAAAAAAAAAAAAAAAAAAAAAAAAAAAAAAAAAAAAAAAAAAAAAAAAAAAAAAAAAAAAAAAAAAAAAAAAAAAAAAAAAAAAAAAAAAAAAAAAAAAAAAAAAAAAAAAAAAAAAAAAAAAAAAAAAAAAAAAAAAAAAAAAAAAAAAAAAAAAAAAAAAAAAAAAAAAAAAAAAAAAAAAAAAAAAAAAAAAAAAAAAAAAAAAAAAAAAAAAAAAAAAAAAAAAAAAAAAAAAAAAAAAAAAAAAAAAAAAAAAAAAAAAAAAAAAAAAAAAAAAAAAAAAAAAAAAAAAAAAAAAAAAAAAAAAAAAAAAAAAAAAAAAAAAAAAAAAAAAAAAAAAAAAAAAAAAAAAAAAAAAAAAAAAAAAAAAAAAAAAAAAAAAAAAAAAAAAAAAAAAAAAAAAAAAAAAAAAAAAAAAAAAAAAAAAAAAAAAAAAAAAAAAAAAAAAAAAAAAAAAAAAAAAAAAAAAAAAAAAAAAAAAAAAAAAAAAAAAAAAAAAAAAAAAAAAAAAAAAAAAAAAAAAAAAAAAAAAAAAAAAAAAAAAAAAAAAAAAAAAAAAAAAAAAAAAAAAAAAAAAAAAAAAAAAAAAAAAAAAAAAAAAAAAAAAAAAAAAAAAAAAAAAAAAAAAAAAAAAAAAAAAAAAAAAAAAAAAAAAAAAAAAAAAAAAAAAAAAAAAAAAAAAAAAAAAAAAAAAAAAAAAAAAAAAAAAAAAAAAAAAAAAAAAAAAAAAAAAAAAAAAAAAAAAAAAAAAAAAAAAAAAAAAAAAAAAAAAAAAAAAAAAAAAAAAAAAAAAAAAAAAAAAAAAAAAAAAAAAAAAAAAAAAAAAAAAAAAAAAAAAAAAAAAAAAAAAAAAAAAAAAAAAAAAAAAAAAAAAAAAAAAAAAAAAAAAAAAAAAAAAAAAAAAAAAAAAAAAAAAAAAAAAAAAAAAAAAAAAAAAAAAAAAAAAAAAAAAAAAAAAAAAAAAAAAAAAAAAAAAAAAAAAAAAAAAAAAAAAAAAAAAAAAAAAAAAAAAAAAAAAAAAAAAAAAAAAAAAAAAAAAAAAAAAAAAAAAAAAAAAAAAAAAAAAAAAAAAAAAAAAAAAAAAAAAAAAAAAAAAAAAAAAAAAAAAAAAAAAAAAAAAAAAAAAAAAAAAAAAAAAAAAAAAAAAAAAAAAAAAAAAAAAAAAAAAAAAAAAAAAAAAAAAAAAAAAAAAAAAAAAAAAAAAAAAAAAAAAAAAAAAAAAAAAAAAAAAAAAAAAAAAAAAAAAAAAAAAAAAAAAAAAAAAAAAAAAAAAAAAAAAAAAAAAAAAAAAAAAAAAAAAAAAAAAAAAAAAAAAAAAAAAAAAAAAAAAAAAAAAAAAAAAAAAAAAAAAAAAAAAAAAAAAAAAAAAAAAAAAAAAAAAAAAAAAAAAAAAAAAAAAAAAAAAAAAAAAAAAAAAAAAAAAAAAAAAAAAAAAAAAAAAAAAAAAAAAAAAAAAAAAAAAAAAAAAAAAAAAAAAAAAAAAAAAAAAAAAAAAAAAAAAAAAAAAAAAAAAAAAAAAAAAAAAAAAAAAAAAAAAAAAAAAAAAAAAAAAAAAAAAAAAAAAAAAAAAAAAAAAAAAAAAAAAAAAAAAAAAAAAAAAAAAAAAAAAAAAAAAAAAAAAAAAAAAAAAAAAAAAAAAAAAAAAAAAAAAAAAAAAAAAAAAAAAAAAAAAAAAAAAAAAAAAAAAAAAAAAAAAAAAAAAAAAAAAAAAAAAAAAAAAAAAAAAAAAAAAAAAAAAAAAAAAAAAAAAAPZYQIUm5Qvs+ZRJirkbUceEpfi9kNgCJJFPIm/qlMEvpEWZXKyugloMuel4FSW1+/Ah+6Wms/K/CUcu0AbC0AJl9zY=</c2pa:manifest></metadata>
  <defs>
    <style>
      .st0 {
        fill: url(#linear-gradient2);
      }

      .st1 {
        fill: url(#linear-gradient1);
      }

      .st2 {
        fill: url(#linear-gradient9);
      }

      .st3 {
        fill: url(#linear-gradient3);
      }

      .st4 {
        fill: url(#linear-gradient6);
      }

      .st5 {
        fill: url(#linear-gradient8);
      }

      .st6 {
        fill: url(#linear-gradient7);
      }

      .st7 {
        fill: url(#linear-gradient5);
      }

      .st8 {
        fill: url(#linear-gradient4);
      }

      .st9 {
        fill: url(#linear-gradient31);
      }

      .st10 {
        fill: url(#linear-gradient30);
      }

      .st11 {
        fill: url(#linear-gradient28);
      }

      .st12 {
        fill: url(#linear-gradient29);
      }

      .st13 {
        fill: url(#linear-gradient18);
      }

      .st14 {
        fill: url(#linear-gradient13);
      }

      .st15 {
        fill: url(#linear-gradient12);
      }

      .st16 {
        fill: url(#linear-gradient15);
      }

      .st17 {
        fill: url(#linear-gradient16);
      }

      .st18 {
        fill: url(#linear-gradient11);
      }

      .st19 {
        fill: url(#linear-gradient10);
      }

      .st20 {
        fill: url(#linear-gradient17);
      }

      .st21 {
        fill: url(#linear-gradient14);
      }

      .st22 {
        fill: url(#linear-gradient19);
      }

      .st23 {
        fill: url(#linear-gradient23);
      }

      .st24 {
        fill: url(#linear-gradient22);
      }

      .st25 {
        fill: url(#linear-gradient24);
      }

      .st26 {
        fill: url(#linear-gradient25);
      }

      .st27 {
        fill: url(#linear-gradient21);
      }

      .st28 {
        fill: url(#linear-gradient20);
      }

      .st29 {
        fill: url(#linear-gradient27);
      }

      .st30 {
        fill: url(#linear-gradient26);
      }

      .st31 {
        fill: url(#linear-gradient);
      }

      .st32 {
        opacity: .05;
      }
    </style>
    <linearGradient id="linear-gradient" x1="31.39" y1="30.01" x2="1044.38" y2="1045.75" gradientUnits="userSpaceOnUse">
      <stop offset="0" stop-color="#fef3e2"/>
      <stop offset="1" stop-color="#f7e7cf"/>
    </linearGradient>
    <linearGradient id="linear-gradient1" x1="378.57" y1="-366.84" x2="3214.87" y2="3749.37" gradientUnits="userSpaceOnUse">
      <stop offset="0" stop-color="#ae2914"/>
      <stop offset="1" stop-color="#4c0a02"/>
    </linearGradient>
    <linearGradient id="linear-gradient2" x1="26.11" y1="-868.06" x2="7645.99" y2="10190.37" xlink:href="#linear-gradient1"/>
    <linearGradient id="linear-gradient3" x1="-483.89" y1="-945.78" x2="7608.81" y2="10798.86" xlink:href="#linear-gradient1"/>
    <linearGradient id="linear-gradient4" x1="129.98" y1="-191.92" x2="5281.36" y2="7284.08" xlink:href="#linear-gradient1"/>
    <linearGradient id="linear-gradient5" x1="-323.13" y1="-578.43" x2="4598.86" y2="6564.65" xlink:href="#linear-gradient1"/>
    <linearGradient id="linear-gradient6" x1="24.9" y1="460.9" x2="2618.53" y2="4224.94" xlink:href="#linear-gradient1"/>
    <linearGradient id="linear-gradient7" x1="-137.07" y1="-202.94" x2="1490.94" y2="2159.73" xlink:href="#linear-gradient1"/>
    <linearGradient id="linear-gradient8" x1="-636.4" y1="-366.9" x2="5136.54" y2="8011.15" xlink:href="#linear-gradient1"/>
    <linearGradient id="linear-gradient9" x1="322.61" y1="150.38" x2="1552.38" y2="1935.1" xlink:href="#linear-gradient1"/>
    <linearGradient id="linear-gradient10" x1="445.69" y1="65.57" x2="1675.46" y2="1850.29" xlink:href="#linear-gradient1"/>
    <linearGradient id="linear-gradient11" x1="431.71" y1="75.2" x2="1661.48" y2="1859.92" xlink:href="#linear-gradient1"/>
    <linearGradient id="linear-gradient12" x1="374.45" y1="114.66" x2="1604.22" y2="1899.38" xlink:href="#linear-gradient1"/>
    <linearGradient id="linear-gradient13" x1="375.38" y1="114.01" x2="1605.16" y2="1898.73" xlink:href="#linear-gradient1"/>
    <linearGradient id="linear-gradient14" x1="302.02" y1="164.57" x2="1531.79" y2="1949.29" xlink:href="#linear-gradient1"/>
    <linearGradient id="linear-gradient15" x1="356.33" y1="127.14" x2="1586.11" y2="1911.86" xlink:href="#linear-gradient1"/>
    <linearGradient id="linear-gradient16" x1="301.1" y1="165.2" x2="1530.87" y2="1949.92" xlink:href="#linear-gradient1"/>
    <linearGradient id="linear-gradient17" x1="385.44" y1="107.09" x2="1615.21" y2="1891.81" xlink:href="#linear-gradient1"/>
    <linearGradient id="linear-gradient18" x1="113.57" y1="294.42" x2="1343.34" y2="2079.14" xlink:href="#linear-gradient1"/>
    <linearGradient id="linear-gradient19" x1="70.55" y1="324.06" x2="1300.32" y2="2108.78" xlink:href="#linear-gradient1"/>
    <linearGradient id="linear-gradient20" x1="307.15" y1="161.03" x2="1536.92" y2="1945.75" xlink:href="#linear-gradient1"/>
    <linearGradient id="linear-gradient21" x1="15.77" y1="361.81" x2="1245.54" y2="2146.53" xlink:href="#linear-gradient1"/>
    <linearGradient id="linear-gradient22" x1="180.45" y1="248.33" x2="1410.22" y2="2033.05" xlink:href="#linear-gradient1"/>
    <linearGradient id="linear-gradient23" x1="105.93" y1="299.68" x2="1335.7" y2="2084.41" xlink:href="#linear-gradient1"/>
    <linearGradient id="linear-gradient24" x1="253.2" y1="198.2" x2="1482.98" y2="1982.92" xlink:href="#linear-gradient1"/>
    <linearGradient id="linear-gradient25" x1="299.26" y1="166.46" x2="1529.04" y2="1951.19" xlink:href="#linear-gradient1"/>
    <linearGradient id="linear-gradient26" x1="300.97" y1="165.29" x2="1530.74" y2="1950.01" xlink:href="#linear-gradient1"/>
    <linearGradient id="linear-gradient27" x1="367.45" y1="119.48" x2="1597.22" y2="1904.2" xlink:href="#linear-gradient1"/>
    <linearGradient id="linear-gradient28" x1="397.69" y1="98.64" x2="1627.46" y2="1883.36" xlink:href="#linear-gradient1"/>
    <linearGradient id="linear-gradient29" x1="384.31" y1="107.86" x2="1614.09" y2="1892.58" xlink:href="#linear-gradient1"/>
    <linearGradient id="linear-gradient30" x1="430.34" y1="76.15" x2="1660.11" y2="1860.87" xlink:href="#linear-gradient1"/>
    <linearGradient id="linear-gradient31" x1="339.03" y1="139.06" x2="1568.8" y2="1923.78" xlink:href="#linear-gradient1"/>
    <clipPath id="icon-round">
      <rect width="1080" height="1080" rx="216"/>
    </clipPath>
  </defs>
  <g clip-path="url(#icon-round)">
  <rect class="st31" width="1080" height="1080"/>
  <g class="st32">
    <path class="st1" d="M749.8,350.77c39.9,0,69.54-29.46,65.9-65.8C811.97,189.43,811.57,94.8,814.79,0h-175.15c-4.1,86.48-2.82,173.26,2.3,262.45,3.62,48.78,54.3,88.32,107.86,88.32Z"/>
    <path class="st0" d="M1079.83,916.44V163.48S1080.13,87.05,1045.81,0h-147.85c1.54,174.43,16.81,451.8,42,739.29,6.38,72.78,9.57,109.17,8.53,134.88-3.66,90.76-1.5,148.26-1.61,205.82h109.27c15.36-49.87,23.86-103.6,23.86-151.98,0-3.9-.06-7.76-.17-11.58Z"/>
    <path class="st3" d="M566.5,0h-159.06c-5.05,362.82,111.26,717.65,105.85,1080h159.41C677.58,717.09,561.08,362.37,566.5,0Z"/>
    <path class="st8" d="M878.65,775.35c-9.01-180.83-28.15-226.57-38.59-307.87-5.26-40.93-47.02-74.11-92.79-74.11s-76.68,33.18-69.37,74.11c37.73,208.45,67.69,407.43,62.99,612.52h150.81c.89-46.75-.24-108.05-5.15-190.14-4.97-83.18-5.3-62.15-7.91-114.51Z"/>
    <path class="st7" d="M290.31,690.3c44.37,12.92,108.02-51.64,112.36-78.45,2.3-14.19,1.53-30.49,1.53-30.49-.28-5.92-.92-10.34-1.77-17.6-2.48-21.16-4.94-36.53-5.38-39.26-38.88-238.9-45.48-379.1-45.48-379.1C348.86,87.94,348.01,40.92,348.31,0h-133.99c.03,141.88,6.87,335.73,21,562.63,5.03,41.63,13.84,115.68,55,127.67Z"/>
    <path class="st4" d="M359.27,736.71c-.52.19-1.04.37-1.56.56-57.36,20.74-93.74,73.89-91.41,135.1,1.21,69.6.3,138.65-2.64,207.63h175.65c3.66-100.59-.18-200.6-14.02-303.78-4.91-28.13-39.83-48.89-66.03-39.51Z"/>
    <path class="st6" d="M46.63,220.24c48.39,0,87.5-41.06,87.5-91.39,0-.72,0-1.44-.02-2.17C133.06,80.25,132.62,37.9,132.97,0H23.84c-2.39,8.68-4.47,17.33-6.27,25.81-4.99,23.45-8.03,47.3-9.58,71.27-1.61,24.84-3.22,49.67-4.84,74.5-1.7,26.32,18.24,48.65,43.47,48.65Z"/>
    <path class="st5" d="M146.71,422.19c-1.96-41.56-3.83-81.46-5.54-119.57-1-22.24-20.69-39.77-44.63-39.77-26.66,0-50.79,10.04-68.26,26.27C10.81,305.35,0,327.77,0,352.54v566.44c7.44,63.02,17.77,112.65,37.13,161.02h148.9c3.93-93.82,3.95-235.81-29.78-557.3-5.82-55.46-8.72-83.19-9.54-100.52Z"/>
  </g>
  <g>
    <path class="st2" d="M686.05,419.31h-18.59c-3.62,0-6.55,2.93-6.55,6.55,0,65.37-54.29,118.55-121.02,118.55s-121.02-53.18-121.02-118.55c0-3.62-2.93-6.55-6.55-6.55h-18.59c-3.62,0-6.55,2.93-6.55,6.55,0,77.58,60.08,141.6,136.86,149.43v40.72h-8.69c-17.5,0-31.68,14.18-31.68,31.68h112.41c0-17.5-14.18-31.68-31.68-31.68h-8.69v-40.72c76.79-7.82,136.86-71.85,136.86-149.43,0-3.62-2.93-6.55-6.55-6.55Z"/>
    <path class="st19" d="M578.68,191.87c-.1-.04-.2-.09-.29-.13-4.95-2.17-11.94,1.62-13.23,7.22-6.51,34.37-7.53,67.26-5.53,102.06.7,9.44,10.51,17.09,20.87,17.09,7.72,0,13.46-5.7,12.75-12.73-1.12-28.62-.69-56.82,1.48-85.37,1.18-12.27-5.22-23.34-16.05-28.13Z"/>
    <path class="st18" d="M633.26,475.05c7.35-13.61,11.54-32.18,11.1-47.48,0-48.57,0-97.14,0-145.71,0,0,.07-18.3-9.08-37.37-3.99-8.32-9.33-15.43-13.95-20.81-3.54-4.12-11.47-1.92-11.77,3.24-1.61,27.1,1.49,95.13,7.73,166.37,1.23,14.08,1.85,21.13,1.65,26.1-.94,23.48.12,35.46-.54,51.33-.38,9.02,10.66,12.09,14.86,4.32Z"/>
    <path class="st15" d="M548.04,186.99c-2.99-2.74-7.25-2.85-8.16-2.86-5.4-.05-10.87,3.65-15.38,9.79-3.7,5.03-5.99,10.84-6.96,16.89-16.25,101.43,33.51,198.55,11.51,300.15-2.16,7.93,2.36,14.35,10.83,14.36,2.01,0,4.05-.06,6.06-.17,3.19-.18,6.44-.46,9.65-.87,0,0,8.25-1.12,14.7-2.84,4.1-1.1,8.25-2.34,12.2-3.8.09-.03.13-.05.22-.08,12.3-4.55,20.95-15.13,22.12-26.84.79-7.93,5.16-17.77,2.14-68.28-.96-16.1-1.03-12.03-1.53-22.16-1.74-34.99-5.45-43.84-7.47-59.58-1.02-7.92-9.1-14.34-17.96-14.34s-14.84,6.42-13.42,14.34c9.82,54.26,16.92,105.21,8.64,160.19-.83,4.28-4.42,8.1-8.92,9.55-3.41,1.1-6.1-1.17-5.3-4.42,19.95-104.15-32.86-203.44-10.3-307.52,1.28-4.69.19-8.88-2.68-11.5Z"/>
    <path class="st14" d="M498.91,190.84c-2.71-.86-5.9.94-8.74,2.54,0,0-5.78,3.26-9.41,8.23-5.12,7.03-5.32,69.38.17,157.49.97,8.06,2.68,22.39,10.64,24.71,8.59,2.5,20.9-9.99,21.74-15.18.44-2.75.3-5.9.3-5.9-.05-1.15-.18-2-.34-3.4-.48-4.1-.96-7.07-1.04-7.6-7.52-46.23-8.8-73.36-8.8-73.36-1.65-35.15.26-50.09,1.56-71.5.47-7.67-1.92-14.71-6.08-16.03Z"/>
    <path class="st21" d="M504.92,392.79c-.1.04-.2.07-.3.11-11.1,4.01-18.14,14.3-17.69,26.14.48,27.53-.76,54.63-3.56,82.05-1.12,6.71,4.27,12.5,11.98,12.91,10.35.56,20.59-6.26,21.85-15.28,4.05-33.3,4.98-64.94.51-98.29-.95-5.44-7.71-9.46-12.78-7.65Z"/>
    <path class="st16" d="M452.41,229.81c-2.37.43-4.24,2.43-5.74,4.77-3.98,6.22-6.39,13.7-7.87,20.64-.97,4.54-1.55,9.15-1.85,13.79-.31,4.81-.62,9.61-.94,14.42-.33,5.09,3.53,9.41,8.41,9.41h0c9.5,0,17.15-8.17,16.93-18.1-.31-13.73-.34-25.61.02-35.4.25-6.64-4.52-10.35-8.97-9.54Z"/>
    <path class="st17" d="M435.4,428.06c2.39,20.19,6.3,33.28,17.15,49.91,4.37,6.71,17.74,3.86,18.11-4.1.9-19.34,3.48-41.42-5.02-122.5-1.13-10.73-1.69-16.1-1.85-19.45-.38-8.04-.74-15.76-1.07-23.14-.19-4.3-4-7.7-8.64-7.7h0c-10.32,0-18.68,7.77-18.68,17.36v109.61Z"/>
    <path class="st20" d="M699.52,397.24c.32-.14.65-.28.97-.42.42-.19.84-.39,1.26-.59.28-.14.57-.28.85-.42.44-.22.87-.45,1.3-.68.24-.13.48-.26.72-.39.46-.26.92-.52,1.37-.79.16-.1.32-.2.48-.3,11.24-6.86,19.63-17.63,23.04-30.31.22-.82.42-1.64.6-2.47.53-2.49.88-5.05,1.01-7.66.05-.87.07-1.75.07-2.63h0c0-.64-.02-1.27-.05-1.9-.83-21.6-15.68-39.75-36.1-46.4,5.08-93.16-72.55-168.94-155.17-168.9-82.52.04-160.08,75.7-155.03,168.87-20.46,6.63-35.35,24.79-36.18,46.42-.03.63-.05,1.26-.05,1.9h0c0,.88.02,1.76.07,2.63.14,2.61.48,5.17,1.01,7.66.18.83.38,1.65.6,2.47,3.41,12.69,11.8,23.45,23.04,30.31.16.1.32.2.48.3.45.27.91.53,1.37.79.24.13.48.26.72.39.43.23.86.46,1.3.68.28.14.57.28.85.42.42.2.84.4,1.26.59.32.14.65.28.97.42.4.17.81.35,1.22.51.38.15.76.29,1.14.43.37.14.73.28,1.11.41.73.25,1.47.49,2.21.72.31.09.63.17.94.26.48.14.96.27,1.45.39.34.09.68.16,1.03.24.47.11.94.21,1.41.31.35.07.7.14,1.05.2.48.09.95.17,1.44.25.35.05.7.11,1.05.16.5.07,1,.13,1.51.18.34.04.67.08,1.01.11.56.05,1.12.09,1.68.12.29.02.58.04.87.06.83.04,1.66.06,2.5.06.03,0,.05,0,.08,0,7.59,0,14.02-4.79,16.16-11.38.16-.51.3-1.02.42-1.55.11-.53.2-1.06.26-1.61.06-.54.09-1.1.09-1.66v-104.63c0-59.39,46.42-108.61,106.36-116.15,4.81-.61,9.7-.94,14.67-.99,4.96.05,9.86.38,14.67.99,59.94,7.54,106.36,56.76,106.36,116.15v104.63c0,.56.03,1.11.09,1.66.06.54.14,1.08.26,1.61.11.53.25,1.04.42,1.55,2.14,6.59,8.57,11.38,16.16,11.38.03,0,.05,0,.08,0,.84,0,1.67-.02,2.5-.06.29-.01.58-.04.87-.06.56-.03,1.12-.07,1.68-.12.34-.03.67-.07,1.01-.11.51-.06,1.01-.11,1.51-.18.35-.05.7-.1,1.05-.16.48-.08.96-.16,1.44-.25.35-.06.7-.13,1.05-.2.47-.1.94-.2,1.41-.31.34-.08.69-.16,1.03-.24.49-.12.97-.26,1.45-.39.31-.09.63-.17.94-.26.74-.22,1.48-.46,2.21-.72.37-.13.74-.27,1.11-.41.38-.14.76-.28,1.14-.43.41-.16.81-.34,1.22-.51Z"/>
    <path class="st13" d="M265.56,782.13c9.64,0,21.87-2.6,35.15-8.07l9.9-27.86c4.17,23.18,9.64,35.68,25,42.97h.26c22.14,10.94,57.81,15.36,95.83,15.36,56.77,0,118.75-9.9,145.83-21.87h.26c13.54-5.99,25-12.24,34.37-18.23l9.64-25-2.34-2.08-16.67,5.73c-1.3.52-2.34.78-3.65,1.3-14.58,2.34-26.82,3.39-37.24,3.39-46.61,0-56.51-19.53-56.51-27.08,0-9.11,14.58-20.83,41.14-20.83,20.83,0,37.24,7.29,46.61,15.36l2.86-1.56c-2.86-13.28-11.46-47.13-44.53-47.13s-49.74,31.77-49.74,57.55c0,19.01,9.64,31.51,22.13,39.84-25,3.13-52.34,4.69-78.38,4.69-39.84,0-77.08-3.91-98.43-13.28h-.26c-14.06-6.25-19.53-9.9-22.66-35.41l-8.85-71.87h-3.91l-11.46,28.38-29.17,16.67c-26.82,14.58-38.28,35.42-38.28,54.95s10.68,34.11,33.07,34.11ZM303.58,700.88l6.25,40.1c0,.78.26,1.3.26,1.82-13.54,4.43-27.34,5.99-37.76,5.99-18.75,0-28.65-7.55-34.11-17.71l65.36-30.21Z"/>
    <path class="st22" d="M273.89,622.24l16.93,17.19,18.75-18.75v-3.12l-18.75-18.75-16.93,17.19-17.19-17.19-18.75,19.01v2.6l18.75,19.01,17.19-17.19Z"/>
    <path class="st28" d="M668.94,712.72c2.08-7.55,3.13-15.1,3.13-22.92v-32.67l7.29-9.9-10.16-48.44h-3.91l-17.45,23.18,6.51,130.59h4.43l10.16-39.84Z"/>
    <path class="st27" d="M403.83,903.38l-20.05,20.31v2.86l20.05,20.05,20.05-20.05c.26,0,.26-2.86,0-3.13l-20.05-20.05Z"/>
    <path class="st24" d="M640.29,912.5l-17.19-17.19-18.75,19.01v2.6l18.75,19.01,17.19-17.19,16.93,17.19,18.75-18.75v-3.12l-18.75-18.75-16.93,17.19Z"/>
    <path class="st23" d="M664.25,763.02c-.52-.52-.78-1.04-1.04-1.56h-3.91l-13.28,31.25c11.46,13.54,23.18,29.69,26.82,38.28-14.32,2.86-30.99,4.95-45.57,4.95,0,0,0,0,0,0h0c-20.57,0-38.28-4.95-38.8-27.08l-.52-17.71h-4.69l-4.43,24.74c-.52,2.86-1.04,5.73-1.3,8.33-44.27,12.24-94.53,22.14-156.24,22.14-66.14,0-140.36-11.46-205.46-46.61l-2.08,3.39,36.98,47.39c46.35,20.57,98.17,30.47,159.11,30.47,66.4,0,123.17-11.72,156.5-25.78l10.68-25.52c-2.08,32.55,15.62,42.45,37.5,42.45,0,0,0,0,0,0h0c18.75,0,36.72-4.69,51.3-12.24l9.12-25c3.39-9.37,4.95-18.75,4.43-27.86l5.21-12.5-20.31-31.51Z"/>
    <path class="st25" d="M718.42,903.64c-1.56.52-3.13,1.3-4.17,2.6l-6.51,6.51.78,1.04,48.44-12.24c1.56-.52,3.12-1.56,4.17-2.86l7.03-8.07-1.04-1.3-48.7,14.32Z"/>
    <path class="st26" d="M788.73,767.45l-36.46-24.22q-.26-.26-.52-.52h-3.91l-9.12,33.07c31.51,17.71,52.08,41.93,55.73,55.73-17.71,3.12-45.57,4.69-58.07,4.69-30.73,0-29.69-9.9-32.29-22.66h-3.91c-.78,9.9-1.56,22.66-1.56,28.91,0,20.31,8.59,29.95,30.21,29.95,14.84,0,39.32-4.69,57.03-11.72l7.55-16.93c11.46-25.26,5.99-46.87-9.37-67.71l4.69-8.59Z"/>
    <path class="st30" d="M725.61,793.85c7.01,0,14.09-1.06,23.67-2.9-6.26-4.44-12.99-8.74-20.17-12.77l5.67-20.56c-1.34.03-2.59.04-3.7.04-30.73,0-25.41-9.9-28.02-22.66h-3.91c-.78,9.9-1.56,22.66-1.56,28.91,0,20.31,6.41,29.95,28.03,29.95Z"/>
    <path class="st29" d="M787.68,688.9l-36.46-24.22q-.26-.26-.52-.52h-3.91l-9.11,33.07c31.51,17.71,52.08,41.93,55.73,55.73-4.23.75-4.47.87-9.52,1.44l10.48,6.06c10.72-24.73,3.74-42.48-11.38-62.97l4.69-8.59Z"/>
    <path class="st11" d="M777.27,621.98c.26,0,.26-2.86,0-3.13l-20.05-20.05-20.05,20.31v2.86l20.05,20.05,20.05-20.05Z"/>
    <path class="st12" d="M864.44,758.36l-9.37,2.08.26-.26c-4.17.78-7.81,1.3-11.2,1.3-16.14,0-21.61-9.38-20.83-13.28.78-3.12,8.07-6.25,14.32-6.25,7.81,0,12.5,5.21,16.14,10.68l3.13-.52.26-1.04c4.95-12.5-1.3-25.52-13.28-25.52-11.2,0-19.01,10.94-22.66,19.27-4.95,11.46-3.13,20.83,4.95,27.08-1.56,1.3-2.87,2.87-4.69,4.43l-10.42,10.94,1.3,2.08,46.61-13.54,7.29-15.36-1.82-2.08Z"/>
    <path class="st10" d="M846.2,716.03c.09,0,.18,0,.28,0v-59.17l9.11-10.94-10.68-47.13h-4.69l-18.49,23.96,2.57,104.15c5.73-6.2,13.08-10.88,21.89-10.88Z"/>
    <path class="st9" d="M828.77,935.94h5.21l9.37-39.84c2.08-7.29,3.12-15.1,3.12-22.92v-83.83l-20.39,5.92,2.68,140.66Z"/>
  </g>
  </g>
</svg>
